<?xml version="1.0" standalone="no"?>
<!DOCTYPE svg PUBLIC "-//W3C//DTD SVG 1.1//EN" "http://www.w3.org/Graphics/SVG/1.1/DTD/svg11.dtd" >
<svg xmlns="http://www.w3.org/2000/svg">
<metadata>
This is a custom SVG webfont generated by Font Squirrel.
Copyright   : Font software Copyright 1990 1991 1998 Adobe Systems Incorporated Typeface designs Copyright The Monotype Corporation All rights reserved
Foundry URL : httpwwwmonotypeimagingcom
</metadata>
<defs>
<font id="GillSansMTProBook" horiz-adv-x="491" >
<font-face units-per-em="2048" ascent="1397" descent="-651" />
<missing-glyph horiz-adv-x="512" />
<glyph unicode=" "  horiz-adv-x="512" />
<glyph unicode="&#x09;" horiz-adv-x="512" />
<glyph unicode="&#xa0;" horiz-adv-x="512" />
<glyph unicode="!" d="M135 92q0 47 33 79t78 32t77.5 -33t32.5 -78q0 -47 -32.5 -78.5t-77.5 -31.5t-78 31.5t-33 78.5zM147 1157q0 258 98.5 258t98.5 -258q0 -178 -30.5 -405.5t-67.5 -227.5t-68 227.5t-31 405.5z" />
<glyph unicode="&#x22;" horiz-adv-x="661" d="M111 1159v238h141v-238l-41 -276h-59zM410 1159v238h141v-238l-41 -276h-59z" />
<glyph unicode="#" horiz-adv-x="1366" d="M88 387v123h225l76 377h-301v123h326l88 405h123l-88 -405h421l84 405h123l-84 -405h197v-123h-223l-76 -377h299v-123h-324l-88 -405h-123l88 405h-421l-86 -405h-123l86 405h-199zM434 510h422l76 377h-420z" />
<glyph unicode="$" horiz-adv-x="1087" d="M88 135v182q104 -84 188 -129t209 -65v504q-74 23 -132 49t-121.5 69t-99.5 108t-36 144q0 119 89 221.5t300 129.5v67h133v-67q203 -25 328 -123v-172q-145 127 -328 155v-469q201 -59 296.5 -160.5t95.5 -226.5q0 -45 -17.5 -97t-57.5 -111.5t-122 -104.5t-195 -57 v-224h-133v224q-213 18 -397 153zM246 1008q0 -49 18.5 -85t57 -64t72.5 -43t91 -36v428q-98 -4 -168.5 -60t-70.5 -140zM618 125q109 10 173.5 70.5t64.5 142.5q0 94 -53 139t-185 98v-450z" />
<glyph unicode="%" horiz-adv-x="1429" d="M57 1096q0 133 94.5 226t225.5 93t225 -93t94 -226t-94 -226.5t-225 -93.5t-225.5 93.5t-94.5 226.5zM139 0l1022 1397h129l-1022 -1397h-129zM176 1096q0 -84 59.5 -142.5t141.5 -58.5t141.5 58.5t59.5 142.5t-59.5 142t-141.5 58t-141.5 -58t-59.5 -142zM733 301 q0 133 94.5 226.5t225.5 93.5t225 -93.5t94 -226.5t-94 -226t-225 -93t-225.5 93t-94.5 226zM852 301q0 -84 59.5 -142.5t141.5 -58.5t141 58.5t59 142.5t-59 142.5t-141 58.5t-141.5 -58.5t-59.5 -142.5z" />
<glyph unicode="&#x26;" horiz-adv-x="1280" d="M61 315q0 127 91.5 233.5t246.5 184.5q-166 180 -166 326q0 135 94.5 223t245.5 88q150 0 238 -90t88 -209q0 -70 -26.5 -131t-78 -108.5t-85 -73t-84.5 -56.5l256 -278q84 109 151 272h158q-72 -205 -209 -383l283 -313h-197l-186 205l-25 -24l-36 -34 q-13 -12 -42.5 -35.5t-54.5 -39t-61.5 -34t-72.5 -29.5t-81 -19t-92 -8q-141 0 -248 94t-107 239zM225 328q0 -86 57.5 -143.5t157.5 -57.5q72 0 140.5 31.5t104.5 62.5t97 92l-290 316q-92 -59 -149.5 -104.5t-81 -82t-30 -59t-6.5 -55.5zM379 1069q0 -117 151 -262 q223 102 224 256q0 68 -48.5 120t-136.5 52q-94 0 -142 -52.5t-48 -113.5z" />
<glyph unicode="'" horiz-adv-x="405" d="M133 1159v238h141v-238l-41 -276h-59z" />
<glyph unicode="(" horiz-adv-x="681" d="M154 473q0 139 31.5 273.5t69.5 225.5t104.5 192.5t99.5 142.5l90 108h108q-350 -406 -350 -942q0 -291 99.5 -534.5t250.5 -409.5h-108q-74 84 -120 145.5t-121 187.5t-114.5 281.5t-39.5 329.5z" />
<glyph unicode=")" horiz-adv-x="681" d="M25 -471q350 406 350 942q0 291 -99.5 534.5t-250.5 409.5h108q74 -84 120 -145.5t121 -187.5t114.5 -281.5t39.5 -329.5q0 -139 -31.5 -273.5t-69.5 -225.5t-104.5 -192.5t-99.5 -141.5l-90 -109h-108z" />
<glyph unicode="*" horiz-adv-x="768" d="M51 860q0 25 20.5 42.5t84.5 39.5l172 64q-4 8 -4 18q0 8 4 20l-197 74q-76 29 -76 74q0 27 17.5 45t40.5 18q33 0 77 -45l150 -139q12 16 33 16l-33 177q-12 59 -12 77q0 74 59 74q57 0 57 -67q0 -27 -10 -84l-35 -177q16 2 35 -16l148 139q43 43 80 43q20 0 36.5 -17 t16.5 -44q0 -29 -18.5 -46.5t-65.5 -33.5l-187 -68q8 -23 0 -38l177 -64q96 -33 96 -86q0 -18 -16.5 -39.5t-41.5 -21.5q-39 0 -98 59l-127 127q-16 -16 -35 -18l35 -187q8 -49 8 -84q0 -23 -14 -42t-43 -19q-61 0 -61 63q0 12 14 86l35 183q-20 4 -33 18l-137 -127 q-63 -57 -94 -57q-29 0 -43.5 20t-14.5 43z" />
<glyph unicode="+" horiz-adv-x="1366" d="M139 631v133h477v477h134v-477h477v-133h-477v-477h-134v477h-477z" />
<glyph unicode="," d="M135 84q0 53 32 86t71 33q57 0 87.5 -47t30.5 -119q0 -33 -7 -68t-26.5 -79t-63.5 -80.5t-105 -57.5v33q84 84 71 184q-90 29 -90 115z" />
<glyph unicode="-" horiz-adv-x="661" d="M84 436v94h494v-94h-494z" />
<glyph unicode="." d="M135 92q0 47 33 79t78 32t77.5 -32t32.5 -79t-32.5 -78.5t-77.5 -31.5t-78 31.5t-33 78.5z" />
<glyph unicode="/" horiz-adv-x="1087" d="M117 -18l717 1433h137l-717 -1433h-137z" />
<glyph unicode="0" horiz-adv-x="1024" d="M63 698.5q0 331.5 130.5 524t318.5 192.5t318.5 -192.5t130.5 -524t-130.5 -524t-318.5 -192.5t-318.5 192.5t-130.5 524zM217 698.5q0 -239.5 80 -406.5t213 -167q137 0 217 166t80 407q0 240 -80 407t-215 167t-215 -167t-80 -406.5z" />
<glyph unicode="1" horiz-adv-x="1024" d="M434 0v1397h154v-1397h-154z" />
<glyph unicode="2" horiz-adv-x="1024" d="M72 0v8q188 199 358 424q139 186 198.5 312t59.5 243q0 141 -88 212t-190 71q-168 0 -314 -172v186q154 131 330 131q174 0 295 -117.5t121 -293.5q0 -100 -36 -206t-116 -226.5t-143.5 -204.5t-177.5 -222h589v-145h-886z" />
<glyph unicode="3" horiz-adv-x="1024" d="M111 57v156q150 -86 313 -86q106 0 195.5 65.5t89.5 194.5q0 43 -14.5 84t-48.5 86t-105.5 72.5t-173.5 27.5v142q88 0 152.5 23.5t94 53t46 70.5t17.5 58.5t1 35.5q0 104 -77 169t-195 65q-141 0 -271 -80v145q131 76 281 76q182 0 298.5 -98t116.5 -264 q0 -74 -22.5 -132.5t-64.5 -95.5t-66.5 -52t-63.5 -34q248 -92 248 -346q0 -195 -133 -303t-301 -108q-172 -1 -317 75z" />
<glyph unicode="4" horiz-adv-x="1024" d="M27 500v61l702 854h57v-790h177v-125h-177v-500h-145v500h-614zM250 625h391v477z" />
<glyph unicode="5" horiz-adv-x="1024" d="M94 72v161q174 -106 322 -106q139 0 227 90t88 215q0 123 -92 211t-260 88q-109 0 -174 -22v688h604v-135h-463v-400q41 4 74 4q221 0 343 -126t122 -308q0 -190 -126 -320t-331 -130q-166 0 -334 90z" />
<glyph unicode="6" horiz-adv-x="1024" d="M106 473q0 145 44.5 282.5t103.5 231.5t148.5 188.5t145.5 140.5t130 99l90 -115q-201 -162 -266 -229q-152 -160 -207 -373q127 84 264 84q170 0 280.5 -117.5t110.5 -275.5q0 -182 -120.5 -294.5t-288.5 -112.5q-199 0 -317 137t-118 354zM260 449q0 -131 74 -228.5 t205 -97.5q106 0 182 69.5t76 186.5q0 106 -66.5 183t-204.5 77q-150 0 -262 -104q-4 -45 -4 -86z" />
<glyph unicode="7" horiz-adv-x="1024" d="M80 1251v146h907l-635 -1415l-135 59l547 1210h-684z" />
<glyph unicode="8" horiz-adv-x="1024" d="M90 379q0 211 203 342q-180 133 -180 311q0 160 118.5 271.5t280.5 111.5t280.5 -111.5t118.5 -271.5q0 -201 -178 -311q102 -61 151.5 -141t49.5 -201q0 -168 -120 -282.5t-302 -114.5q-178 0 -300 115.5t-122 281.5zM244 383q0 -111 75.5 -183.5t192.5 -72.5 q121 0 194.5 78t73.5 182q0 115 -77.5 183.5t-190.5 68.5q-127 0 -197.5 -78t-70.5 -178zM266 1030q0 -100 72 -173t174 -73t174 73t72 173t-72 172t-174 72t-174 -72t-72 -172z" />
<glyph unicode="9" horiz-adv-x="1024" d="M74 1008q0 182 120.5 294.5t288.5 112.5q199 0 317 -137t118 -354q0 -145 -44.5 -282.5t-103.5 -232t-148.5 -188.5t-145.5 -140t-130 -99l-90 114q201 162 266 230q152 160 207 372q-127 -84 -264 -84q-170 0 -280.5 118t-110.5 276zM227 1018q0 -106 66.5 -183 t204.5 -77q150 0 262 104q4 45 4 86q0 131 -74 228.5t-205 97.5q-106 0 -182 -69.5t-76 -186.5z" />
<glyph unicode=":" d="M135 92q0 47 33 79t78 32t77.5 -32t32.5 -79t-32.5 -78.5t-77.5 -31.5t-78 31.5t-33 78.5zM135 827q0 45 33 78t78 33t77.5 -33t32.5 -78t-32.5 -77.5t-77.5 -32.5t-78 32.5t-33 77.5z" />
<glyph unicode=";" d="M135 84q0 53 32 86t71 33q57 0 87.5 -47t30.5 -119q0 -33 -7 -68t-26.5 -79t-63.5 -80.5t-105 -57.5v33q84 84 71 184q-90 29 -90 115zM135 827q0 45 33 78t78 33t77.5 -33t32.5 -78t-32.5 -77.5t-77.5 -32.5t-78 32.5t-33 77.5z" />
<glyph unicode="&#x37e;" d="M135 84q0 53 32 86t71 33q57 0 87.5 -47t30.5 -119q0 -33 -7 -68t-26.5 -79t-63.5 -80.5t-105 -57.5v33q84 84 71 184q-90 29 -90 115zM135 827q0 45 33 78t78 33t77.5 -33t32.5 -78t-32.5 -77.5t-77.5 -32.5t-78 32.5t-33 77.5z" />
<glyph unicode="&#x3c;" horiz-adv-x="1366" d="M139 639v119l1088 456v-141l-910 -375l910 -374v-142z" />
<glyph unicode="=" horiz-adv-x="1366" d="M139 401v134h1088v-134h-1088zM139 860v133h1088v-133h-1088z" />
<glyph unicode="&#x3e;" horiz-adv-x="1366" d="M139 182v142l910 374l-910 375v141l1088 -456v-119z" />
<glyph unicode="?" horiz-adv-x="641" d="M94 1206l90 191q45 18 97 18q111 0 188.5 -85t77.5 -210q0 -133 -131 -354l-33 -55q-80 -133 -101.5 -178.5t-21.5 -86.5q0 -29 6 -47l15 -39q0 -14 -17 -14q-12 0 -35.5 25.5t-46 71.5t-22.5 94q0 68 28.5 128t122.5 212q80 125 80 237q0 70 -42 117t-105 47 q-84 0 -140 -72h-10zM137 92q0 45 33 78t78 33q47 0 78.5 -32t31.5 -79t-31.5 -78.5t-78.5 -31.5t-79 31.5t-32 78.5z" />
<glyph unicode="@" horiz-adv-x="1855" d="M55 465q0 285 130 505t339 332.5t457 112.5q188 0 337.5 -61.5t233.5 -150.5t139.5 -199.5t74 -197.5t18.5 -157q0 -268 -177 -474t-384 -206q-182 0 -150 176q-152 -176 -328 -176q-158 0 -255 133.5t-97 294.5q0 147 64.5 293t185.5 244t262 98q111 0 194 -59.5 t113 -128.5l33 162h154l-158 -738q-20 -82 -20 -118q0 -23 17 -37.5t40 -14.5q49 0 113.5 40t128 108.5t106.5 181.5t43 238q0 109 -39 217t-115.5 203.5t-208.5 154.5t-298 59q-219 0 -406.5 -94t-309.5 -286.5t-122 -448.5q0 -371 234.5 -572.5t594.5 -201.5 q334 0 545 164q57 45 139 143h142q-111 -195 -326 -308.5t-498 -113.5q-430 0 -688 238.5t-258 644.5zM547 385q0 -125 69.5 -210t167.5 -85q150 0 262.5 173t112.5 362q0 127 -66.5 207.5t-174.5 80.5q-158 0 -264.5 -166.5t-106.5 -361.5z" />
<glyph unicode="A" horiz-adv-x="1368" d="M4 0l621 1405h102l637 -1405h-160l-203 449h-639l-198 -449h-160zM422 584h516l-262 579z" />
<glyph unicode="B" horiz-adv-x="1130" d="M164 0v1397h350q66 0 126 -10.5t119.5 -36t102.5 -65.5t69.5 -104.5t26.5 -146.5q0 -70 -23.5 -127t-60 -92t-65.5 -52.5t-57 -29.5q180 -35 254.5 -139.5t74.5 -218.5q0 -139 -106.5 -257t-304.5 -118h-506zM317 135h248q352 0 353 252q0 104 -83 178t-274 74h-244v-504 zM317 774h152q326 0 326 248q0 127 -78 183.5t-248 56.5h-152v-488z" />
<glyph unicode="C" horiz-adv-x="1421" d="M96 694q0 317 221.5 519t516.5 202q233 0 497 -117v-165q-252 137 -485 137q-250 0 -418 -164t-168 -412t166 -407.5t414 -159.5q252 0 506 147v-165q-238 -127 -502 -127q-330 0 -539 206.5t-209 505.5z" />
<glyph unicode="D" horiz-adv-x="1527" d="M164 0v1397h432q174 0 320.5 -39t264 -119t184.5 -218t67 -322.5t-67 -322.5t-184.5 -218t-264 -119t-320.5 -39h-432zM317 135h289q96 0 180 12.5t175.5 50.5t157 97t107.5 163.5t42 240t-42 239.5t-107.5 163.5t-157 97.5t-175.5 50.5t-180 12.5h-289v-1127z" />
<glyph unicode="E" horiz-adv-x="1021" d="M164 0v1397h778v-135h-625v-490h607v-135h-607v-502h641v-135h-794z" />
<glyph unicode="F" horiz-adv-x="937" d="M164 0v1397h729v-135h-576v-459h547v-135h-547v-668h-153z" />
<glyph unicode="G" horiz-adv-x="1486" d="M96 696q0 303 210 511t542 208q94 0 189.5 -20.5t151.5 -41t144 -57.5v-163q-231 143 -495 143q-250 0 -414 -167t-164 -411q0 -268 175 -424.5t401 -156.5q166 0 372 78v331h-282v136h436v-564q-266 -117 -512 -116q-342 0 -548 209.5t-206 504.5z" />
<glyph unicode="H" horiz-adv-x="1492" d="M164 0v1397h153v-623h859v623h153v-1397h-153v639h-859v-639h-153z" />
<glyph unicode="I" d="M168 0v1397h154v-1397h-154z" />
<glyph unicode="J" horiz-adv-x="479" d="M-106 -291q33 -4 57 -4q61 0 103 20.5t64.5 48t34 78t13.5 88t2 99.5v1358h154v-1377q0 -207 -56 -299q-96 -162 -299 -161q-31 0 -47 2z" />
<glyph unicode="K" horiz-adv-x="1224" d="M164 0v1397h153v-668l631 668h191l-635 -678l743 -719h-207l-723 696v-696h-153z" />
<glyph unicode="L" horiz-adv-x="987" d="M164 0v1397h153v-1262h660v-135h-813z" />
<glyph unicode="M" horiz-adv-x="1615" d="M164 0v1397h147l498 -613l496 613h147v-1397h-154v1163l-481 -596h-16l-484 596v-1163h-153z" />
<glyph unicode="N" horiz-adv-x="1605" d="M164 0v1397h131l997 -1151v1151h150v-1397h-131l-998 1151v-1151h-149z" />
<glyph unicode="O" horiz-adv-x="1685" d="M96 698q0 139 51.5 267.5t144.5 228.5t236.5 160.5t313.5 60.5q332 0 539.5 -211t207.5 -506q0 -309 -218 -512.5t-537 -203.5q-309 0 -523.5 204.5t-214.5 511.5zM260 696q0 -248 170 -408.5t401 -160.5q252 0 423 163t171 412q0 223 -159.5 395.5t-423.5 172.5 q-260 0 -421 -169t-161 -405z" />
<glyph unicode="P" horiz-adv-x="1056" d="M164 0v1397h399q242 0 351.5 -109.5t109.5 -273.5t-109.5 -273.5t-351.5 -109.5h-246v-631h-153zM317 766h230q313 0 313 248t-313 248h-230v-496z" />
<glyph unicode="Q" horiz-adv-x="1685" d="M96 698q0 139 51.5 267.5t144.5 228.5t236.5 160.5t313.5 60.5q332 0 539.5 -211t207.5 -504q0 -266 -170 -463.5t-450 -244.5q100 -49 150 -71.5t130 -46.5t148 -24q63 0 135 39l12 -10l-162 -168q-342 33 -659 279q-283 41 -455 241.5t-172 466.5zM260 696 q0 -248 170 -408.5t401 -160.5q252 0 423 163t171 412q0 223 -159.5 395.5t-423.5 172.5q-260 0 -421 -169t-161 -405z" />
<glyph unicode="R" horiz-adv-x="1212" d="M164 0v1397h356q246 0 353.5 -111.5t107.5 -263.5q0 -250 -250 -342q70 -45 133.5 -130t208.5 -314q57 -90 160 -236h-184l-134 211q-84 135 -180 258q-72 90 -141.5 130t-175.5 40h-101v-639h-153zM317 774h181q152 0 235.5 63.5t83.5 182.5q0 113 -82 177.5t-237 64.5 h-181v-488z" />
<glyph unicode="S" horiz-adv-x="937" d="M82 1044q0 162 118.5 266.5t295.5 104.5q160 0 315 -92v-174q-172 127 -317 127q-78 0 -133.5 -25.5t-81 -63.5t-36 -70t-10.5 -56q0 -51 21.5 -92t68 -77t80 -55.5t95.5 -50.5q215 -106 292.5 -189t77.5 -232q0 -182 -126 -282.5t-281 -100.5q-184 0 -367 127v188 q176 -176 363 -176q131 0 195.5 75.5t64.5 157.5q0 80 -59.5 147.5t-254.5 160.5q-172 82 -246.5 172.5t-74.5 209.5z" />
<glyph unicode="T" horiz-adv-x="1216" d="M27 1262v135h1161v-135h-504v-1262h-154v1262h-503z" />
<glyph unicode="U" horiz-adv-x="1429" d="M123 647v750h153v-758q0 -154 26 -239t87 -150q123 -129 328 -129q147 0 246.5 66.5t144.5 158.5t45 293v758h154v-750q0 -147 -16.5 -233t-61.5 -162q-59 -104 -186.5 -187t-325.5 -83q-47 0 -99.5 7t-128 29.5t-148.5 75.5t-124 131q-55 84 -74.5 174t-19.5 248z" />
<glyph unicode="V" horiz-adv-x="1230" d="M4 1397h156l458 -1082l455 1082h154l-588 -1411h-39z" />
<glyph unicode="W" horiz-adv-x="2134" d="M6 1397h154l426 -1061l426 1061h112l426 -1061l424 1061h154l-561 -1411h-37l-463 1161l-463 -1161h-39z" />
<glyph unicode="X" horiz-adv-x="1429" d="M2 0l621 719l-582 678h190l486 -568l485 568h189l-578 -678l614 -719h-190l-520 608l-524 -608h-191z" />
<glyph unicode="Y" horiz-adv-x="1226" d="M6 1397h187l417 -516l424 516h187l-533 -652v-745h-153v745z" />
<glyph unicode="Z" horiz-adv-x="1323" d="M27 0v14l970 1248h-917v135h1190v-19l-967 -1243h971v-135h-1247z" />
<glyph unicode="[" horiz-adv-x="661" d="M164 -453v1850h469v-131h-320v-1588h320v-131h-469z" />
<glyph unicode="\" horiz-adv-x="1087" d="M117 1415h137l717 -1433h-137z" />
<glyph unicode="]" horiz-adv-x="661" d="M29 -322h319v1588h-319v131h469v-1850h-469v131z" />
<glyph unicode="^" horiz-adv-x="1153" d="M139 727l402 670h71l402 -670l-123 -27l-316 531l-311 -531z" />
<glyph unicode="_" horiz-adv-x="1024" d="M-12 -154h1048v-102h-1048v102z" />
<glyph unicode="`" horiz-adv-x="681" d="M78 1405h184l182 -322h-90z" />
<glyph unicode="a" horiz-adv-x="897" d="M86 215q0 121 115.5 205t388.5 133v82q0 178 -182 178q-141 0 -287 -135v147q131 113 299 113q92 0 157.5 -29.5t97.5 -77t44 -92.5t12 -90v-504q0 -29 5 -39t20 -10q39 0 118 66v-96q-117 -84 -182 -84q-80 0 -100 104q-139 -104 -268 -104q-98 0 -168 66.5t-70 166.5z M227 225q0 -74 51.5 -107.5t104.5 -33.5q102 0 207 98v279q-363 -66 -363 -236z" />
<glyph unicode="b" horiz-adv-x="1054" d="M133 51v1346h141v-576q106 82 193 105q47 12 98 12q184 0 294 -135t110 -322q0 -227 -134.5 -363t-361.5 -136q-176 -1 -340 69zM274 143q104 -37 211 -37q145 0 241.5 103.5t96.5 259.5q0 147 -83 245.5t-203 98.5q-137 0 -263 -135v-535z" />
<glyph unicode="c" horiz-adv-x="878" d="M86 453q0 221 128 353t325 132q119 0 252 -55v-152q-131 76 -252 76q-113 0 -186.5 -65.5t-97.5 -139.5t-24 -145q0 -135 81 -239.5t251 -104.5q115 0 246 59v-139q-135 -51 -260 -51q-217 0 -340 132t-123 339z" />
<glyph unicode="d" horiz-adv-x="1050" d="M86 459q0 203 122 341t335 138q102 0 233 -55v514h142v-1397h-324q-242 0 -375 119t-133 340zM231 463q0 -162 99.5 -250t265.5 -88h180v629q-106 59 -211 59q-162 0 -248 -100t-86 -250z" />
<glyph unicode="e" horiz-adv-x="985" d="M86 463q0 225 126 350t296 125q172 0 288.5 -128t116.5 -327v-32h-682q0 -160 95.5 -252.5t234.5 -92.5q180 0 338 130v-144q-164 -111 -354 -110q-219 0 -339 140t-120 341zM240 553h528q-14 135 -90 197.5t-166 62.5q-94 0 -170.5 -64.5t-101.5 -195.5z" />
<glyph unicode="f" d="M16 795v125h148v86q0 209 92 309t229 100q55 0 152 -29v-131q-66 25 -127 25q-106 0 -155.5 -65.5t-49.5 -204.5v-90h172v-125h-172v-795h-141v795h-148z" />
<glyph unicode="g" horiz-adv-x="874" d="M18 -203q0 76 56.5 142.5t193.5 91.5q-61 23 -92 58.5t-31 64.5q0 31 12.5 53t42 39.5t49 26t64.5 24.5q-41 16 -71.5 34.5t-69.5 52.5t-60.5 88t-21.5 122q0 59 17.5 111.5t60.5 103.5t130 81t210 30h350v-113h-199q113 -102 113 -225q0 -119 -75.5 -196t-194.5 -105 q-131 -31 -177 -51.5t-46 -61.5q0 -39 44 -59.5t156 -34.5q203 -27 290 -90.5t87 -178.5q0 -135 -120 -205.5t-298 -70.5q-199 0 -309.5 76.5t-110.5 191.5zM152 -201q0 -158 290 -157q131 0 206 45t75 112q0 59 -68.5 106.5t-232.5 47.5q-150 0 -210 -47.5t-60 -106.5z M219 592q0 -76 58.5 -140.5t154.5 -64.5t153.5 59.5t57.5 145.5t-61.5 146.5t-149.5 60.5t-150.5 -60.5t-62.5 -146.5z" />
<glyph unicode="h" horiz-adv-x="1007" d="M133 0v1397h141v-617q119 158 289 158q154 0 242 -104.5t88 -284.5v-549h-141v537q0 125 -53.5 200.5t-168.5 75.5q-160 0 -256 -162v-651h-141z" />
<glyph unicode="i" horiz-adv-x="407" d="M113 1202q0 39 26.5 65.5t65.5 26.5t65.5 -26.5t26.5 -65.5t-26.5 -65.5t-65.5 -26.5t-65.5 26.5t-26.5 65.5zM133 0v920h141v-920h-141z" />
<glyph unicode="j" horiz-adv-x="403" d="M-35 -362q106 20 137 94.5t31 230.5v957h141v-967q0 -182 -36 -266q-8 -20 -24.5 -46t-63 -63t-103.5 -49zM113 1202q0 39 26.5 65.5t65.5 26.5t65.5 -26.5t26.5 -65.5t-26.5 -65.5t-65.5 -26.5t-65.5 26.5t-26.5 65.5z" />
<glyph unicode="k" horiz-adv-x="942" d="M133 0v1397h141v-1397h-141zM285 477l456 443h174l-446 -443l528 -477h-192z" />
<glyph unicode="l" horiz-adv-x="407" d="M133 0v1397h141v-1397h-141z" />
<glyph unicode="m" horiz-adv-x="1585" d="M133 0v920h141v-142q70 82 134.5 121t152.5 39q115 0 182.5 -61.5t98.5 -131.5q137 193 313 193q92 0 157.5 -37t97.5 -98.5t46 -123t14 -128.5v-551h-141v551q0 102 -44 182t-155 80q-68 0 -139 -42t-119 -124v-647h-141v547q0 266 -211 266q-133 0 -246 -158v-655h-141 z" />
<glyph unicode="n" horiz-adv-x="1007" d="M133 0v920h141v-140q119 158 289 158q154 0 242 -104.5t88 -284.5v-549h-141v537q0 125 -53.5 200.5t-168.5 75.5q-160 0 -256 -162v-651h-141z" />
<glyph unicode="o" horiz-adv-x="1130" d="M86 460.5q0 198.5 139.5 338t338 139.5t338.5 -139.5t140 -338t-140 -338.5t-338.5 -140t-338 140t-139.5 338.5zM231 460.5q0 -147.5 95.5 -251t239 -103.5t237.5 103.5t94 251t-94 250t-237.5 102.5t-239 -102.5t-95.5 -250z" />
<glyph unicode="p" horiz-adv-x="1050" d="M133 -453v1373h324q242 0 375 -119t133 -340q0 -203 -122 -341t-335 -138q-102 0 -234 55v-490h-141zM274 166q106 -59 211 -60q162 0 248 100.5t86 250.5q0 162 -99 250t-265 88h-181v-629z" />
<glyph unicode="q" horiz-adv-x="1050" d="M86 461q0 221 133 340t375 119h324v-1373h-142v490q-131 -55 -233 -55q-213 0 -335 138t-122 341zM231 457q0 -150 86 -250.5t248 -100.5q104 0 211 60v629h-180q-166 0 -265.5 -88t-99.5 -250z" />
<glyph unicode="r" horiz-adv-x="743" d="M133 0v920h141v-203q74 115 154 170q76 51 139 51q88 0 219 -109l-75 -122q-98 86 -179 86q-61 0 -126.5 -50.5t-98.5 -124t-33 -221.5v-397h-141z" />
<glyph unicode="s" horiz-adv-x="768" d="M90 66v145q172 -104 297 -105q59 0 107.5 34t48.5 89q0 59 -48.5 98.5t-156.5 90.5q-55 27 -88 45t-74 52t-60.5 77t-19.5 98q0 96 77 172t218 76q125 0 262 -78v-141q-154 94 -260 94q-70 0 -112.5 -35t-42.5 -84q0 -51 48 -87t214 -122q14 -6 20 -10q168 -90 168 -235 q0 -90 -74.5 -174t-228.5 -84q-137 0 -295 84z" />
<glyph unicode="t" horiz-adv-x="641" d="M20 795v22l299 318v-215h277v-125h-277v-482q0 -53 3.5 -82.5t16.5 -60.5t42 -44t76 -13q70 0 186 55v-133q-113 -53 -215 -53q-129 0 -189.5 76.5t-60.5 197.5v539h-158z" />
<glyph unicode="u" horiz-adv-x="1007" d="M115 371v549h141v-537q0 -125 53 -201t168 -76q160 0 256 162v652h141v-920h-141v139q-119 -158 -289 -157q-154 0 -241.5 104.5t-87.5 284.5z" />
<glyph unicode="v" horiz-adv-x="888" d="M4 920h150l299 -670l284 670h148l-402 -938h-61z" />
<glyph unicode="w" horiz-adv-x="1470" d="M4 920h146l278 -654l262 654h92l258 -654l279 654h147l-401 -938h-53l-277 694l-276 -694h-53z" />
<glyph unicode="x" horiz-adv-x="966" d="M2 0l385 467l-385 453h178l295 -347l289 347h172l-373 -449l402 -471h-179l-311 365l-303 -365h-170z" />
<glyph unicode="y" horiz-adv-x="884" d="M4 920h154l293 -580l276 580h154l-670 -1391h-152l318 659z" />
<glyph unicode="z" horiz-adv-x="831" d="M23 0v16l544 772h-518v132h760v-19l-545 -770h545v-131h-786z" />
<glyph unicode="{" horiz-adv-x="681" d="M78 399v146q49 0 84 11t57.5 43t34.5 59.5t17 88t6.5 100.5t1.5 126v22q0 133 17 213t61 122t100.5 54.5t152.5 12.5v-131q-129 0 -159.5 -45t-30.5 -234q0 -246 -35 -350.5t-170 -163.5q135 -59 170 -164.5t35 -351.5q0 -188 30.5 -233.5t159.5 -45.5v-131 q-96 0 -152.5 12.5t-100.5 54.5t-61 122t-17 213v22q0 86 -1.5 126t-6.5 100.5t-17 88t-34.5 59.5t-57.5 43t-84 11z" />
<glyph unicode="|" horiz-adv-x="456" d="M162 -471v1886h133v-1886h-133z" />
<glyph unicode="}" horiz-adv-x="681" d="M72 -322q129 0 159.5 45.5t30.5 233.5q0 246 35 351.5t170 164.5q-135 59 -170 163.5t-35 350.5q0 188 -30.5 233.5t-159.5 45.5v131q96 0 152.5 -12.5t100.5 -54.5t61 -122t17 -213v-22q0 -86 1.5 -126t6.5 -100.5t17 -88t34.5 -59.5t57.5 -43t84 -11v-146 q-49 0 -84 -11t-57.5 -43t-34.5 -59.5t-17 -88t-6.5 -100.5t-1.5 -126v-22q0 -133 -17 -213t-61 -122t-100.5 -54.5t-152.5 -12.5v131z" />
<glyph unicode="~" horiz-adv-x="1366" d="M139 575v144q168 125 295 125q96 0 295 -94q139 -66 207 -66q121 0 291 137v-143q-160 -125 -287 -125q-63 0 -123.5 20.5t-195.5 81.5q-121 57 -187 58q-39 0 -78 -9.5t-73.5 -29t-56 -33.5t-52.5 -38t-35 -28z" />
<glyph unicode="&#xa1;" d="M135 852q0 45 33 78t78 33t77.5 -33t32.5 -78t-32.5 -78t-77.5 -33t-78 33t-33 78zM147 -213q0 178 31 405.5t68 227.5t67.5 -227.5t30.5 -405.5q0 -258 -98.5 -258t-98.5 258z" />
<glyph unicode="&#xa2;" horiz-adv-x="878" d="M86 453q0 240 136 362.5t317 122.5q39 0 82 -6l129 356h90l-133 -375q18 -6 84 -30v-152q-63 37 -129 57l-234 -651q63 -25 135 -24q96 0 246 59v-139q-135 -51 -260 -51q-92 0 -168 26l-141 -395h-90l153 428q-119 66 -168 181.5t-49 230.5zM231 457q0 -180 121 -277 l223 625q-166 16 -255 -92.5t-89 -255.5z" />
<glyph unicode="&#xa3;" horiz-adv-x="1110" d="M158 -18l170 622h-160v141h197q31 96 50 148l57 145q38 94 76 148.5t91 114t118.5 87t141.5 27.5q39 0 84 -12l80 -156q-55 23 -129 23q-80 0 -150.5 -44t-116.5 -114t-76 -133.5t-46 -124.5l-31 -109h184v-141h-225l-121 -450q102 10 154 10q96 0 203 -21 q98 -16 149 -16q125 0 205 47v-151q-88 -41 -189 -41q-45 0 -194 22q-86 14 -217 14q-184 1 -305 -36z" />
<glyph unicode="&#xa4;" horiz-adv-x="1130" d="M84 309l131 131q-84 129 -84 258t84 256l-131 133l90 93l133 -136q125 86 258 86q129 0 256 -86l135 136l91 -93l-136 -133q86 -119 86 -256q0 -125 -86 -258l136 -131l-91 -92l-135 133q-117 -84 -258 -84q-143 0 -256 84l-133 -133zM260 698q0 -125 89 -214t214 -89 t214 89t89 214t-89 214t-214 89t-214 -89t-89 -214z" />
<glyph unicode="&#xa5;" horiz-adv-x="1130" d="M31 1397h159l381 -686l365 686h164l-400 -686h367v-119h-424v-152h424v-118h-424v-322h-154v322h-428v118h428v152h-428v119h371z" />
<glyph unicode="&#xa6;" horiz-adv-x="456" d="M162 313h133v-784h-133v784zM162 631v784h133v-784h-133z" />
<glyph unicode="&#xa7;" horiz-adv-x="831" d="M55 582q0 186 162 317q-78 111 -78 221q0 123 79 209t226 86q121 0 187.5 -56t66.5 -122q0 -45 -26.5 -65.5t-57.5 -20.5q-37 0 -56 22.5t-40 67.5q-29 63 -92 64q-70 0 -113 -45.5t-43 -110.5q0 -121 129 -246l209 -201q170 -164 170 -331q0 -86 -42 -159t-130 -157 q86 -117 86 -237q0 -129 -91 -209t-220 -80q-106 0 -184 52t-78 130q0 37 25.5 61.5t64.5 24.5q37 0 54.5 -17.5t45.5 -74.5q35 -66 99 -65q68 0 110.5 50t42.5 111q0 72 -43 132.5t-160 181.5l-131 135q-90 94 -131 164t-41 168zM197 592q0 -100 79 -184l252 -271 q63 80 86 125t23 103q0 115 -117 231l-223 221q-100 -125 -100 -225z" />
<glyph unicode="&#xa8;" horiz-adv-x="681" d="M59 1243q0 39 27 65.5t65.5 26.5t65.5 -26.5t27 -65.5t-27 -65.5t-65.5 -26.5t-65.5 26.5t-27 65.5zM438 1243q0 39 27 65.5t65.5 26.5t65.5 -26.5t27 -65.5t-27 -65.5t-65.5 -26.5t-65.5 26.5t-27 65.5z" />
<glyph unicode="&#x308;" horiz-adv-x="681" d="M59 1243q0 39 27 65.5t65.5 26.5t65.5 -26.5t27 -65.5t-27 -65.5t-65.5 -26.5t-65.5 26.5t-27 65.5zM438 1243q0 39 27 65.5t65.5 26.5t65.5 -26.5t27 -65.5t-27 -65.5t-65.5 -26.5t-65.5 26.5t-27 65.5z" />
<glyph unicode="&#xa9;" horiz-adv-x="1574" d="M29 655q0 315 222 537.5t537.5 222.5t536.5 -224t221 -535.5t-221 -534.5t-536.5 -223t-537.5 222t-222 535zM137 655q0 -268 190.5 -458.5t461 -190.5t460 191.5t189.5 457.5q0 268 -189.5 460t-460.5 192q-268 0 -459.5 -191t-191.5 -461zM401 655q0 180 104.5 300 t291.5 120q233 0 331 -227l-108 -29q-66 160 -225 160q-123 0 -198 -88t-75 -225q0 -147 67.5 -243.5t192.5 -96.5q186 0 252 198l107 -35q-45 -137 -142 -202q-92 -66 -211 -66q-176 0 -281.5 125t-105.5 309z" />
<glyph unicode="&#xaa;" horiz-adv-x="575" d="M35 983q0 70 66.5 119t256.5 86v43q0 27 -4 44t-28.5 35.5t-69.5 18.5q-90 0 -197 -92v106q90 72 203 72q61 0 104.5 -17.5t64 -38t30.5 -56t11 -51t1 -44.5v-239q0 -47 21 -47q16 0 71 49v-80q-74 -53 -133 -53q-49 0 -72 53q-72 -53 -163 -53q-72 0 -117 44t-45 101z M150 989q0 -39 27.5 -56.5t62.5 -17.5q70 0 118 50v155q-208 -35 -208 -131z" />
<glyph unicode="&#xab;" horiz-adv-x="1024" d="M49 459l344 461h139l-344 -461l344 -459h-139zM459 459l344 461h139l-344 -461l344 -459h-139z" />
<glyph unicode="&#xac;" horiz-adv-x="1366" d="M139 860v133h1088v-592h-133v459h-955z" />
<glyph unicode="&#xad;" horiz-adv-x="661" d="M84 436v94h494v-94h-494z" />
<glyph unicode="&#xae;" horiz-adv-x="1574" d="M29 655q0 315 222 537.5t537.5 222.5t536.5 -223t221 -537q0 -311 -221 -534t-536.5 -223t-537.5 222t-222 535zM137 655.5q0 -268.5 190.5 -459t461 -190.5t460 191.5t189.5 457.5q0 268 -189.5 460t-460 192t-461 -191.5t-190.5 -460zM467 242v809h326 q88 0 149.5 -22.5t90 -59.5t39.5 -70t11 -65q0 -197 -235 -230q20 -6 37.5 -15t34.5 -25l26 -24q10 -9 25 -31l18 -28q4 -6 18.5 -31.5t16.5 -27.5l102 -180h-139l-115 207q0 2 -6 13t-11 19t-15.5 22.5t-20.5 25t-26.5 21.5t-34 19.5t-41 13.5t-47.5 5h-86v-346h-117z M584 686h145q131 0 178 35t47 102.5t-52 99t-171 31.5h-147v-268z" />
<glyph unicode="&#xaf;" horiz-adv-x="681" d="M35 1180v129h612v-129h-612z" />
<glyph unicode="&#xb0;" horiz-adv-x="811" d="M123 1133q0 117 83 199.5t199.5 82.5t199.5 -82t83 -200q0 -117 -83 -200t-199.5 -83t-199.5 82t-83 201zM219 1133q0 -76 54.5 -131.5t132 -55.5t132 54.5t54.5 132t-54.5 132t-132 54.5t-132 -54t-54.5 -132z" />
<glyph unicode="&#xb1;" horiz-adv-x="1366" d="M139 0v133h1088v-133h-1088zM139 801v133h477v477h134v-477h477v-133h-477v-477h-134v477h-477z" />
<glyph unicode="&#xb2;" horiz-adv-x="661" d="M57 559v8l236 244q61 68 93 123t36 76.5t4 54.5q0 59 -40 101t-114 42q-104 0 -196 -108v123q2 0 17.5 11t23.5 16t28.5 15.5t39 15.5t45 9t55.5 4q131 0 193.5 -67.5t62.5 -149.5t-62.5 -180t-210.5 -252h342v-86h-553z" />
<glyph unicode="&#xb3;" horiz-adv-x="661" d="M82 590v98q100 -53 194 -53q72 0 112 36t40 91q0 131 -195 131v86q182 0 183 117q0 113 -148 112q-82 0 -172 -49v92q76 43 176 43q141 0 199.5 -59t58.5 -135q0 -117 -118 -158q70 -18 100.5 -71.5t30.5 -104.5q0 -106 -83 -161.5t-177 -55.5q-103 0 -201 41z" />
<glyph unicode="&#xb4;" horiz-adv-x="681" d="M240 1083l180 322h184l-274 -322h-90z" />
<glyph unicode="&#xb5;" horiz-adv-x="1130" d="M182 -453v1373h142v-471q0 -111 21.5 -185t59 -106.5t74.5 -45t84 -12.5t85 12.5t77 45t60.5 106.5t21.5 185v471h141v-920h-135v111q-90 -129 -248 -129q-145 0 -239 120v-555h-144z" />
<glyph unicode="&#xb6;" horiz-adv-x="1193" d="M37 913q0 248 147.5 366t411.5 118h567v-78h-172v-1786h-102v1786h-191v-1786h-102v903q-250 0 -404.5 124t-154.5 353z" />
<glyph unicode="&#xb7;" d="M135 698q0 47 33 79t78 32t77.5 -32t32.5 -79t-32.5 -78.5t-77.5 -31.5t-78 31.5t-33 78.5z" />
<glyph unicode="&#x22c5;" d="M135 698q0 47 33 79t78 32t77.5 -32t32.5 -79t-32.5 -78.5t-77.5 -31.5t-78 31.5t-33 78.5z" />
<glyph unicode="&#x387;" d="M135 698q0 47 33 79t78 32t77.5 -32t32.5 -79t-32.5 -78.5t-77.5 -31.5t-78 31.5t-33 78.5z" />
<glyph unicode="&#xb8;" horiz-adv-x="681" d="M260 -346l6 88h10q10 -2 23 -2h30q17 0 33.5 2t34 7t28.5 12.5t19.5 18.5t8.5 27q0 76 -123 66l47 143h88l-19 -69q121 -31 121 -131q0 -61 -51 -117q-55 -53 -180 -53q-35 0 -76 8z" />
<glyph unicode="&#xb9;" horiz-adv-x="661" d="M274 559v725h115v-725h-115z" />
<glyph unicode="&#xba;" horiz-adv-x="747" d="M55 1126q0 125 90.5 207t227.5 82t228 -82t91 -207t-91 -207.5t-228 -82.5t-227.5 82.5t-90.5 207.5zM170 1126q0 -84 59.5 -144t143.5 -60t144.5 60t60.5 144t-60.5 143.5t-144.5 59.5t-143.5 -59.5t-59.5 -143.5z" />
<glyph unicode="&#xbb;" horiz-adv-x="1024" d="M82 0l344 459l-344 461h139l344 -461l-344 -459h-139zM492 0l344 459l-344 461h139l344 -461l-344 -459h-139z" />
<glyph unicode="&#xbc;" horiz-adv-x="1705" d="M297 -55l1003 1470h111l-1005 -1470h-109zM342 680v725h115v-725h-115zM1020 244v49l395 442h43v-413h103v-78h-103v-244h-115v244h-323zM1147 322h196v221z" />
<glyph unicode="&#xbd;" horiz-adv-x="1705" d="M297 -55l1003 1470h111l-1005 -1470h-109zM342 680v725h115v-725h-115zM1073 0v8l236 244q61 68 93 123t36 76.5t4 54.5q0 59 -40 101t-114 42q-104 0 -196 -108v123q2 0 17 11t23.5 16t29 15.5t39 15.5t45 9t54.5 4q131 0 193.5 -67.5t62.5 -149.5t-62 -180t-210 -252 h342v-86h-553z" />
<glyph unicode="&#xbe;" horiz-adv-x="1705" d="M131 711v98q100 -53 195 -53q72 0 111.5 35.5t39.5 91.5q0 131 -194 131v86q182 0 182 117q0 113 -148 112q-82 0 -172 -49v92q76 43 177 43q141 0 199.5 -59.5t58.5 -134.5q0 -117 -119 -158q70 -18 100.5 -71.5t30.5 -104.5q0 -106 -83 -161.5t-177 -55.5 q-103 0 -201 41zM297 -55l1003 1470h111l-1005 -1470h-109zM1020 244v49l395 442h43v-413h103v-78h-103v-244h-115v244h-323zM1147 322h196v221z" />
<glyph unicode="&#xbf;" horiz-adv-x="641" d="M94 -176q0 133 131 354l33 55q80 133 101.5 178.5t21.5 86.5q0 29 -6 47l-15 39q0 14 17 14q12 0 35.5 -25.5t46 -71.5t22.5 -93q0 -68 -28.5 -128.5t-122.5 -211.5q-80 -125 -80 -238q0 -70 42 -117t105 -47q84 0 140 72h10l-90 -191q-47 -18 -97 -18q-111 0 -188.5 85 t-77.5 210zM283 852q0 45 32.5 78t77.5 33t78 -33t33 -78t-33 -78t-78 -33t-77.5 33t-32.5 78z" />
<glyph unicode="&#xc0;" horiz-adv-x="1368" d="M4 0l621 1405h102l637 -1405h-160l-203 449h-639l-198 -449h-160zM422 584h516l-262 579zM453 1812h184l182 -321h-90z" />
<glyph unicode="&#xc1;" horiz-adv-x="1368" d="M4 0l621 1405h102l637 -1405h-160l-203 449h-639l-198 -449h-160zM422 584h516l-262 579zM553 1491l180 321h185l-275 -321h-90z" />
<glyph unicode="&#xc2;" horiz-adv-x="1368" d="M4 0l621 1405h102l637 -1405h-160l-203 449h-639l-198 -449h-160zM401 1491l205 321h158l205 -321h-97l-188 201l-188 -201h-95zM422 584h516l-262 579z" />
<glyph unicode="&#xc3;" horiz-adv-x="1368" d="M4 0l621 1405h102l637 -1405h-160l-203 449h-639l-198 -449h-160zM367 1542l6 48q2 15 14 53t27.5 57.5t46.5 38t71 18.5q68 0 183 -49q92 -39 135 -39q31 0 49.5 18.5t22.5 33t8 40.5h74q0 -106 -51.5 -162.5t-116.5 -56.5q-55 0 -148 37q-131 51 -168 51q-66 0 -80 -88 h-73zM422 584h516l-262 579z" />
<glyph unicode="&#xc4;" horiz-adv-x="1368" d="M4 0l621 1405h102l637 -1405h-160l-203 449h-639l-198 -449h-160zM403 1651q0 39 27 65.5t66 26.5t65.5 -26.5t26.5 -65.5t-26.5 -65.5t-65.5 -26.5t-66 26.5t-27 65.5zM422 584h516l-262 579zM782 1651q0 39 27 65.5t65.5 26.5t65.5 -26.5t27 -65.5t-27 -65.5 t-65.5 -26.5t-65.5 26.5t-27 65.5z" />
<glyph unicode="&#xc5;" horiz-adv-x="1368" d="M4 0l621 1405h102l637 -1405h-160l-203 449h-639l-198 -449h-160zM422 584h516l-262 579zM494 1673q0 80 55 136.5t135 56.5t136.5 -56.5t56.5 -136.5t-56.5 -135t-136.5 -55t-135 55t-55 135zM582 1673q0 -43 29.5 -72.5t72.5 -29.5t73.5 29.5t30.5 72.5t-30.5 74 t-73.5 31t-72.5 -31t-29.5 -74z" />
<glyph unicode="&#xc6;" horiz-adv-x="1810" d="M4 0l850 1397h870v-135h-614v-490h600v-135h-600v-502h635v-135h-789v637h-395l-387 -637h-170zM643 772h313v520z" />
<glyph unicode="&#xc7;" horiz-adv-x="1421" d="M96 694q0 317 221.5 519t516.5 202q233 0 497 -117v-165q-252 137 -485 137q-250 0 -418 -164t-168 -412t166 -407.5t414 -159.5q252 0 506 147v-165q-225 -121 -484 -127l-8 -33q90 -12 129 -56.5t39 -99.5q0 -82 -85 -138t-220 -56q-74 0 -137 8l6 104q45 -6 100 -6 q182 0 182 78q0 74 -178 74l43 131q-287 35 -462 234.5t-175 471.5z" />
<glyph unicode="&#xc8;" horiz-adv-x="1021" d="M164 0v1397h778v-135h-625v-490h607v-135h-607v-502h641v-135h-794zM289 1812h184l182 -321h-90z" />
<glyph unicode="&#xc9;" horiz-adv-x="1021" d="M164 0v1397h778v-135h-625v-490h607v-135h-607v-502h641v-135h-794zM451 1491l180 321h184l-274 -321h-90z" />
<glyph unicode="&#xca;" horiz-adv-x="1021" d="M164 0v1397h778v-135h-625v-490h607v-135h-607v-502h641v-135h-794zM268 1491l205 321h158l205 -321h-97l-188 201l-189 -201h-94z" />
<glyph unicode="&#xcb;" horiz-adv-x="1021" d="M164 0v1397h778v-135h-625v-490h607v-135h-607v-502h641v-135h-794zM270 1651q0 39 27 65.5t65.5 26.5t65.5 -26.5t27 -65.5t-27 -65.5t-65.5 -26.5t-65.5 26.5t-27 65.5zM649 1651q0 39 26.5 65.5t65.5 26.5t66 -26.5t27 -65.5t-27 -65.5t-66 -26.5t-65.5 26.5 t-26.5 65.5z" />
<glyph unicode="&#xcc;" d="M14 1812h185l182 -321h-90zM168 0v1397h154v-1397h-154z" />
<glyph unicode="&#xcd;" d="M145 1491l181 321h184l-274 -321h-91zM168 0v1397h154v-1397h-154z" />
<glyph unicode="&#xce;" d="M-37 1491l205 321h158l204 -321h-96l-188 201l-189 -201h-94zM168 0v1397h154v-1397h-154z" />
<glyph unicode="&#xcf;" d="M-35 1651q0 39 26.5 65.5t65.5 26.5t66 -26.5t27 -65.5t-27 -65.5t-66 -26.5t-65.5 26.5t-26.5 65.5zM168 0v1397h154v-1397h-154zM344 1651q0 39 26.5 65.5t65.5 26.5t65.5 -26.5t26.5 -65.5t-26.5 -65.5t-65.5 -26.5t-65.5 26.5t-26.5 65.5z" />
<glyph unicode="&#xd0;" horiz-adv-x="1527" d="M-23 643v111h187v643h432q174 0 320.5 -39t264 -119t184.5 -218t67 -322.5t-67 -322.5t-184.5 -218t-264 -119t-320.5 -39h-432v643h-187zM317 135h289q96 0 180 12.5t175.5 50.5t157 97t107.5 163.5t42 240t-42 239.5t-107.5 163.5t-157 97.5t-175.5 50.5t-180 12.5 h-289v-508h424v-111h-424v-508z" />
<glyph unicode="&#xd1;" horiz-adv-x="1605" d="M164 0v1397h131l997 -1151v1151h150v-1397h-131l-998 1151v-1151h-149zM485 1542l7 48q2 15 14 53t27.5 57.5t46 38t71.5 18.5q68 0 183 -49q92 -39 135 -39q31 0 49 18.5t22 33t9 40.5h73q0 -106 -51 -162.5t-117 -56.5q-55 0 -147 37q-131 51 -168 51q-66 0 -80 -88 h-74z" />
<glyph unicode="&#xd2;" horiz-adv-x="1685" d="M96 698q0 139 51.5 267.5t144.5 228.5t236.5 160.5t313.5 60.5q332 0 539.5 -211t207.5 -506q0 -309 -218 -512.5t-537 -203.5q-309 0 -523.5 204.5t-214.5 511.5zM260 696q0 -248 170 -408.5t401 -160.5q252 0 423 163t171 412q0 223 -159.5 395.5t-423.5 172.5 q-260 0 -421 -169t-161 -405zM610 1812h185l182 -321h-90z" />
<glyph unicode="&#xd3;" horiz-adv-x="1685" d="M96 698q0 139 51.5 267.5t144.5 228.5t236.5 160.5t313.5 60.5q332 0 539.5 -211t207.5 -506q0 -309 -218 -512.5t-537 -203.5q-309 0 -523.5 204.5t-214.5 511.5zM260 696q0 -248 170 -408.5t401 -160.5q252 0 423 163t171 412q0 223 -159.5 395.5t-423.5 172.5 q-260 0 -421 -169t-161 -405zM741 1491l181 321h184l-275 -321h-90z" />
<glyph unicode="&#xd4;" horiz-adv-x="1685" d="M96 698q0 139 51.5 267.5t144.5 228.5t236.5 160.5t313.5 60.5q332 0 539.5 -211t207.5 -506q0 -309 -218 -512.5t-537 -203.5q-309 0 -523.5 204.5t-214.5 511.5zM260 696q0 -248 170 -408.5t401 -160.5q252 0 423 163t171 412q0 223 -159.5 395.5t-423.5 172.5 q-260 0 -421 -169t-161 -405zM559 1491l205 321h158l204 -321h-96l-188 201l-189 -201h-94z" />
<glyph unicode="&#xd5;" horiz-adv-x="1685" d="M96 698q0 139 51.5 267.5t144.5 228.5t236.5 160.5t313.5 60.5q332 0 539.5 -211t207.5 -506q0 -309 -218 -512.5t-537 -203.5q-309 0 -523.5 204.5t-214.5 511.5zM260 696q0 -248 170 -408.5t401 -160.5q252 0 423 163t171 412q0 223 -159.5 395.5t-423.5 172.5 q-260 0 -421 -169t-161 -405zM524 1542l6 48q2 15 14.5 53t28 57.5t46 38t71.5 18.5q68 0 182 -49q92 -39 136 -39q31 0 49 18.5t22 33t8 40.5h74q0 -106 -51 -162.5t-117 -56.5q-55 0 -147 37q-131 51 -168 51q-66 0 -80 -88h-74z" />
<glyph unicode="&#xd6;" horiz-adv-x="1685" d="M96 698q0 139 51.5 267.5t144.5 228.5t236.5 160.5t313.5 60.5q332 0 539.5 -211t207.5 -506q0 -309 -218 -512.5t-537 -203.5q-309 0 -523.5 204.5t-214.5 511.5zM260 696q0 -248 170 -408.5t401 -160.5q252 0 423 163t171 412q0 223 -159.5 395.5t-423.5 172.5 q-260 0 -421 -169t-161 -405zM561 1651q0 39 26.5 65.5t65.5 26.5t65.5 -26.5t26.5 -65.5t-26.5 -65.5t-65.5 -26.5t-65.5 26.5t-26.5 65.5zM940 1651q0 39 26.5 65.5t65.5 26.5t65.5 -26.5t26.5 -65.5t-26.5 -65.5t-65.5 -26.5t-65.5 26.5t-26.5 65.5z" />
<glyph unicode="&#xd7;" horiz-adv-x="1366" d="M184 293l406 405l-406 406l92 94l408 -407l406 407l92 -94l-406 -406l406 -405l-92 -94l-406 407l-408 -407z" />
<glyph unicode="&#xd8;" horiz-adv-x="1685" d="M96 698q0 291 205 504t539 213q260 0 446 -133l117 133l82 -67l-115 -134q219 -213 219 -516q0 -305 -216 -510.5t-535 -205.5q-236 0 -437 131l-116 -131l-84 65l116 133q-221 221 -221 518zM260 696q0 -229 160 -399l764 870q-141 102 -342 103q-260 0 -421 -169 t-161 -405zM502 229q150 -102 338 -102q248 0 416.5 166t168.5 409q0 231 -159 396z" />
<glyph unicode="&#xd9;" horiz-adv-x="1429" d="M123 647v750h153v-758q0 -154 26 -239t87 -150q123 -129 328 -129q147 0 246.5 66.5t144.5 158.5t45 293v758h154v-750q0 -147 -16.5 -233t-61.5 -162q-59 -104 -186.5 -187t-325.5 -83q-47 0 -99.5 7t-128 29.5t-148.5 75.5t-124 131q-55 84 -74.5 174t-19.5 248z M483 1812h185l182 -321h-90z" />
<glyph unicode="&#xda;" horiz-adv-x="1429" d="M123 647v750h153v-758q0 -154 26 -239t87 -150q123 -129 328 -129q147 0 246.5 66.5t144.5 158.5t45 293v758h154v-750q0 -147 -16.5 -233t-61.5 -162q-59 -104 -186.5 -187t-325.5 -83q-47 0 -99.5 7t-128 29.5t-148.5 75.5t-124 131q-55 84 -74.5 174t-19.5 248z M614 1491l181 321h184l-274 -321h-91z" />
<glyph unicode="&#xdb;" horiz-adv-x="1429" d="M123 647v750h153v-758q0 -154 26 -239t87 -150q123 -129 328 -129q147 0 246.5 66.5t144.5 158.5t45 293v758h154v-750q0 -147 -16.5 -233t-61.5 -162q-59 -104 -186.5 -187t-325.5 -83q-47 0 -99.5 7t-128 29.5t-148.5 75.5t-124 131q-55 84 -74.5 174t-19.5 248z M432 1491l205 321h158l204 -321h-96l-188 201l-189 -201h-94z" />
<glyph unicode="&#xdc;" horiz-adv-x="1429" d="M123 647v750h153v-758q0 -154 26 -239t87 -150q123 -129 328 -129q147 0 246.5 66.5t144.5 158.5t45 293v758h154v-750q0 -147 -16.5 -233t-61.5 -162q-59 -104 -186.5 -187t-325.5 -83q-47 0 -99.5 7t-128 29.5t-148.5 75.5t-124 131q-55 84 -74.5 174t-19.5 248z M434 1651q0 39 26.5 65.5t65.5 26.5t65.5 -26.5t26.5 -65.5t-26.5 -65.5t-65.5 -26.5t-65.5 26.5t-26.5 65.5zM813 1651q0 39 26.5 65.5t65.5 26.5t65.5 -26.5t26.5 -65.5t-26.5 -65.5t-65.5 -26.5t-65.5 26.5t-26.5 65.5z" />
<glyph unicode="&#xdd;" horiz-adv-x="1226" d="M6 1397h187l417 -516l424 516h187l-533 -652v-745h-153v745zM512 1491l180 321h185l-275 -321h-90z" />
<glyph unicode="&#xde;" horiz-adv-x="1056" d="M164 0v1397h153v-316h168q113 0 169.5 -4t132 -30.5t131.5 -81.5q106 -104 106 -267q0 -139 -69.5 -223t-159.5 -123q-92 -37 -310 -37h-168v-315h-153zM317 451h179q172 0 256 41q51 27 79.5 85t28.5 123q0 143 -110 207q-74 39 -267 39h-166v-495z" />
<glyph unicode="&#xdf;" horiz-adv-x="1042" d="M133 0v983q0 432 377 432q106 0 186 -32.5t121 -86t60.5 -107.5t19.5 -110q0 -207 -192 -305q252 -86 251 -371q0 -164 -93 -292.5t-271 -128.5q-59 0 -133 18v139q68 -23 114 -22q125 0 182.5 90t57.5 196q0 145 -79 223.5t-210 78.5v129q229 0 230 231q0 131 -76 185.5 t-164 54.5q-63 0 -108.5 -20.5t-71 -51.5t-38.5 -82t-17.5 -97t-4.5 -114v-940h-141z" />
<glyph unicode="&#xe0;" horiz-adv-x="897" d="M86 215q0 121 115.5 205t388.5 133v82q0 178 -182 178q-141 0 -287 -135v147q131 113 299 113q92 0 157.5 -29.5t97.5 -77t44 -92.5t12 -90v-504q0 -29 5 -39t20 -10q39 0 118 66v-96q-117 -84 -182 -84q-80 0 -100 104q-139 -104 -268 -104q-98 0 -168 66.5t-70 166.5z M217 1405h184l183 -322h-90zM227 225q0 -74 51.5 -107.5t104.5 -33.5q102 0 207 98v279q-363 -66 -363 -236z" />
<glyph unicode="&#xe1;" horiz-adv-x="897" d="M86 215q0 121 115.5 205t388.5 133v82q0 178 -182 178q-141 0 -287 -135v147q131 113 299 113q92 0 157.5 -29.5t97.5 -77t44 -92.5t12 -90v-504q0 -29 5 -39t20 -10q39 0 118 66v-96q-117 -84 -182 -84q-80 0 -100 104q-139 -104 -268 -104q-98 0 -168 66.5t-70 166.5z M227 225q0 -74 51.5 -107.5t104.5 -33.5q102 0 207 98v279q-363 -66 -363 -236zM317 1083l181 322h184l-274 -322h-91z" />
<glyph unicode="&#xe2;" horiz-adv-x="897" d="M86 215q0 121 115.5 205t388.5 133v82q0 178 -182 178q-141 0 -287 -135v147q131 113 299 113q92 0 157.5 -29.5t97.5 -77t44 -92.5t12 -90v-504q0 -29 5 -39t20 -10q39 0 118 66v-96q-117 -84 -182 -84q-80 0 -100 104q-139 -104 -268 -104q-98 0 -168 66.5t-70 166.5z M135 1083l205 322h158l204 -322h-96l-188 201l-189 -201h-94zM227 225q0 -74 51.5 -107.5t104.5 -33.5q102 0 207 98v279q-363 -66 -363 -236z" />
<glyph unicode="&#xe3;" horiz-adv-x="897" d="M86 215q0 121 115.5 205t388.5 133v82q0 178 -182 178q-141 0 -287 -135v147q131 113 299 113q92 0 157.5 -29.5t97.5 -77t44 -92.5t12 -90v-504q0 -29 5 -39t20 -10q39 0 118 66v-96q-117 -84 -182 -84q-80 0 -100 104q-139 -104 -268 -104q-98 0 -168 66.5t-70 166.5z M131 1135l6 48q2 15 14.5 53t28 57.5t46 38t71.5 18.5q68 0 182 -50q92 -39 135 -38q31 0 49.5 18t22.5 32.5t8 41.5h74q0 -106 -51 -162.5t-117 -56.5q-55 0 -147 36q-131 51 -168 52q-66 0 -80 -88h-74zM227 225q0 -74 51.5 -107.5t104.5 -33.5q102 0 207 98v279 q-363 -66 -363 -236z" />
<glyph unicode="&#xe4;" horiz-adv-x="897" d="M86 215q0 121 115.5 205t388.5 133v82q0 178 -182 178q-141 0 -287 -135v147q131 113 299 113q92 0 157.5 -29.5t97.5 -77t44 -92.5t12 -90v-504q0 -29 5 -39t20 -10q39 0 118 66v-96q-117 -84 -182 -84q-80 0 -100 104q-139 -104 -268 -104q-98 0 -168 66.5t-70 166.5z M137 1243q0 39 26.5 65.5t65.5 26.5t66 -26.5t27 -65.5t-27 -65.5t-66 -26.5t-65.5 26.5t-26.5 65.5zM227 225q0 -74 51.5 -107.5t104.5 -33.5q102 0 207 98v279q-363 -66 -363 -236zM516 1243q0 39 26.5 65.5t65.5 26.5t65.5 -26.5t26.5 -65.5t-26.5 -65.5t-65.5 -26.5 t-65.5 26.5t-26.5 65.5z" />
<glyph unicode="&#xe5;" horiz-adv-x="897" d="M86 215q0 121 115.5 205t388.5 133v82q0 178 -182 178q-141 0 -287 -135v147q131 113 299 113q92 0 157.5 -29.5t97.5 -77t44 -92.5t12 -90v-504q0 -29 5 -39t20 -10q39 0 118 66v-96q-117 -84 -182 -84q-80 0 -100 104q-139 -104 -268 -104q-98 0 -168 66.5t-70 166.5z M227 225q0 -74 51.5 -107.5t104.5 -33.5q102 0 207 98v279q-363 -66 -363 -236zM227 1266q0 80 55.5 136t135.5 56t136 -56t56 -136t-56 -135.5t-136 -55.5t-135.5 55.5t-55.5 135.5zM315 1266q0 -43 30 -73t73 -30t73.5 30t30.5 73t-30.5 73.5t-73.5 30.5t-73 -30.5 t-30 -73.5z" />
<glyph unicode="&#xe6;" horiz-adv-x="1374" d="M86 219q0 49 14.5 87t51 71t69.5 54.5t103.5 48t116.5 40.5l143 43q0 43 -2 71t-11.5 65.5t-27 59t-51 38t-82.5 16.5q-139 0 -291 -137v160q139 102 301 102q186 0 266 -129l13 13l18 18q6 6 19.5 18t24.5 20l29 18q17 11 34.5 17.5t38 12.5t44 9t47.5 3q106 0 182 -50 t109 -127t46.5 -137.5t13.5 -111.5v-35h-580q-6 -113 22.5 -191.5t77.5 -114.5t92.5 -50.5t81.5 -14.5q72 0 146 28t92 41l68 48v-145q-160 -96 -320 -96q-199 0 -309 143q-188 -143 -340 -143q-125 0 -187.5 72.5t-62.5 164.5zM225 233q0 -61 47 -105t109 -44q76 0 203 88 v303l-123 -41q-41 -14 -95.5 -38.5t-79 -45t-43 -50.5t-18.5 -67zM735 580h424q-6 100 -60.5 166.5t-150.5 66.5q-74 0 -137.5 -58t-75.5 -175z" />
<glyph unicode="&#xe7;" horiz-adv-x="878" d="M86 453q0 221 128 353t325 132q119 0 252 -55v-152q-131 76 -252 76q-113 0 -186.5 -65.5t-97.5 -139.5t-24 -145q0 -135 81 -239.5t251 -104.5q115 0 246 59v-139q-117 -47 -246 -51l-20 -56q156 -8 155 -135q0 -207 -376 -182l8 98q219 -2 219 80q0 66 -160 66l62 137 q-174 29 -269.5 155t-95.5 308z" />
<glyph unicode="&#xe8;" horiz-adv-x="985" d="M86 463q0 225 126 350t296 125q172 0 288.5 -128t116.5 -327v-32h-682q0 -160 95.5 -252.5t234.5 -92.5q180 0 338 130v-144q-164 -111 -354 -110q-219 0 -339 140t-120 341zM240 553h528q-14 135 -90 197.5t-166 62.5q-94 0 -170.5 -64.5t-101.5 -195.5zM270 1405h185 l182 -322h-90z" />
<glyph unicode="&#xe9;" horiz-adv-x="985" d="M86 463q0 225 126 350t296 125q172 0 288.5 -128t116.5 -327v-32h-682q0 -160 95.5 -252.5t234.5 -92.5q180 0 338 130v-144q-164 -111 -354 -110q-219 0 -339 140t-120 341zM240 553h528q-14 135 -90 197.5t-166 62.5q-94 0 -170.5 -64.5t-101.5 -195.5zM391 1083 l180 322h185l-275 -322h-90z" />
<glyph unicode="&#xea;" horiz-adv-x="985" d="M86 463q0 225 126 350t296 125q172 0 288.5 -128t116.5 -327v-32h-682q0 -160 95.5 -252.5t234.5 -92.5q180 0 338 130v-144q-164 -111 -354 -110q-219 0 -339 140t-120 341zM209 1083l205 322h157l205 -322h-96l-188 201l-189 -201h-94zM240 553h528q-14 135 -90 197.5 t-166 62.5q-94 0 -170.5 -64.5t-101.5 -195.5z" />
<glyph unicode="&#xeb;" horiz-adv-x="985" d="M86 463q0 225 126 350t296 125q172 0 288.5 -128t116.5 -327v-32h-682q0 -160 95.5 -252.5t234.5 -92.5q180 0 338 130v-144q-164 -111 -354 -110q-219 0 -339 140t-120 341zM211 1243q0 39 26.5 65.5t65.5 26.5t65.5 -26.5t26.5 -65.5t-26.5 -65.5t-65.5 -26.5 t-65.5 26.5t-26.5 65.5zM240 553h528q-14 135 -90 197.5t-166 62.5q-94 0 -170.5 -64.5t-101.5 -195.5zM590 1243q0 39 26.5 65.5t65.5 26.5t65.5 -26.5t26.5 -65.5t-26.5 -65.5t-65.5 -26.5t-65.5 26.5t-26.5 65.5z" />
<glyph unicode="&#xec;" horiz-adv-x="407" d="M-29 1405h185l182 -322h-90zM133 0v920h141v-920h-141z" />
<glyph unicode="&#xed;" horiz-adv-x="407" d="M102 1083l181 322h184l-274 -322h-91zM133 0v920h141v-920h-141z" />
<glyph unicode="&#xee;" horiz-adv-x="407" d="M-80 1083l205 322h158l204 -322h-96l-188 201l-189 -201h-94zM133 0v920h141v-920h-141z" />
<glyph unicode="&#xef;" horiz-adv-x="407" d="M-78 1243q0 39 26.5 65.5t65.5 26.5t65.5 -26.5t26.5 -65.5t-26.5 -65.5t-65.5 -26.5t-65.5 26.5t-26.5 65.5zM133 0v920h141v-920h-141zM301 1243q0 39 26.5 65.5t65.5 26.5t65.5 -26.5t26.5 -65.5t-26.5 -65.5t-65.5 -26.5t-65.5 26.5t-26.5 65.5z" />
<glyph unicode="&#xf0;" horiz-adv-x="1126" d="M86 455q0 117 49 224t157.5 183t256.5 76q150 0 287 -104q-55 125 -111.5 189t-157.5 138l-262 -125l-41 88l205 99q-100 57 -207 92l66 100q133 -45 272 -129l195 94l41 -90l-144 -67q350 -287 350 -715q0 -119 -31.5 -213t-80.5 -151.5t-115.5 -95.5t-130 -52 t-131.5 -14q-225 0 -346 144.5t-121 328.5zM231 461q0 -147 95.5 -251t239 -104t237.5 103.5t94 251.5q0 152 -97.5 252t-234.5 100q-156 0 -245 -107.5t-89 -244.5z" />
<glyph unicode="&#xf1;" horiz-adv-x="1007" d="M133 0v920h141v-140q119 158 289 158q154 0 242 -104.5t88 -284.5v-549h-141v537q0 125 -53.5 200.5t-168.5 75.5q-160 0 -256 -162v-651h-141zM186 1135l7 48q2 15 14 53t27.5 57.5t46 38t71.5 18.5q68 0 183 -50q92 -39 135 -38q31 0 49 18t22 32.5t9 41.5h73 q0 -106 -51 -162.5t-117 -56.5q-55 0 -147 36q-131 51 -168 52q-66 0 -80 -88h-74z" />
<glyph unicode="&#xf2;" horiz-adv-x="1130" d="M86 460.5q0 198.5 139.5 338t338 139.5t338.5 -139.5t140 -338t-140 -338.5t-338.5 -140t-338 140t-139.5 338.5zM231 460.5q0 -147.5 95.5 -251t239 -103.5t237.5 103.5t94 251t-94 250t-237.5 102.5t-239 -102.5t-95.5 -250zM334 1405h184l182 -322h-90z" />
<glyph unicode="&#xf3;" horiz-adv-x="1130" d="M86 460.5q0 198.5 139.5 338t338 139.5t338.5 -139.5t140 -338t-140 -338.5t-338.5 -140t-338 140t-139.5 338.5zM231 460.5q0 -147.5 95.5 -251t239 -103.5t237.5 103.5t94 251t-94 250t-237.5 102.5t-239 -102.5t-95.5 -250zM465 1083l180 322h184l-274 -322h-90z" />
<glyph unicode="&#xf4;" horiz-adv-x="1130" d="M86 460.5q0 198.5 139.5 338t338 139.5t338.5 -139.5t140 -338t-140 -338.5t-338.5 -140t-338 140t-139.5 338.5zM231 460.5q0 -147.5 95.5 -251t239 -103.5t237.5 103.5t94 251t-94 250t-237.5 102.5t-239 -102.5t-95.5 -250zM283 1083l204 322h158l205 -322h-96 l-189 201l-188 -201h-94z" />
<glyph unicode="&#xf5;" horiz-adv-x="1130" d="M86 460.5q0 198.5 139.5 338t338 139.5t338.5 -139.5t140 -338t-140 -338.5t-338.5 -140t-338 140t-139.5 338.5zM231 460.5q0 -147.5 95.5 -251t239 -103.5t237.5 103.5t94 251t-94 250t-237.5 102.5t-239 -102.5t-95.5 -250zM248 1135l6 48q2 15 14.5 53t27.5 57.5 t46 38t72 18.5q68 0 182 -50q92 -39 135 -38q31 0 49.5 18t22.5 32.5t8 41.5h74q0 -106 -51.5 -162.5t-116.5 -56.5q-55 0 -148 36q-131 51 -168 52q-66 0 -79 -88h-74z" />
<glyph unicode="&#xf6;" horiz-adv-x="1130" d="M86 460.5q0 198.5 139.5 338t338 139.5t338.5 -139.5t140 -338t-140 -338.5t-338.5 -140t-338 140t-139.5 338.5zM231 460.5q0 -147.5 95.5 -251t239 -103.5t237.5 103.5t94 251t-94 250t-237.5 102.5t-239 -102.5t-95.5 -250zM285 1243q0 39 26.5 65.5t65.5 26.5 t65.5 -26.5t26.5 -65.5t-26.5 -65.5t-65.5 -26.5t-65.5 26.5t-26.5 65.5zM664 1243q0 39 26.5 65.5t65.5 26.5t65.5 -26.5t26.5 -65.5t-26.5 -65.5t-65.5 -26.5t-65.5 26.5t-26.5 65.5z" />
<glyph unicode="&#xf7;" horiz-adv-x="1366" d="M139 631v133h1088v-133h-1088zM598 239.5q0 34.5 24.5 59.5t59.5 25t60.5 -25t25.5 -59.5t-25.5 -60t-60.5 -25.5t-59.5 25.5t-24.5 60zM598 1155q0 35 24.5 60.5t59.5 25.5t60.5 -25.5t25.5 -60.5t-25.5 -59.5t-60.5 -24.5t-59.5 24.5t-24.5 59.5z" />
<glyph unicode="&#xf8;" horiz-adv-x="1130" d="M86 459q0 197 137 338t344 141q160 0 277 -90l112 131l68 -57l-115 -134q133 -135 133 -325q0 -152 -74.5 -264.5t-181 -164.5t-221.5 -52q-152 0 -276 88l-115 -129l-68 61l113 127q-133 142 -133 330zM231 461q0 -135 74 -232l453 521q-2 2 -17.5 12t-29 16l-36 15.5 t-51 14.5t-61.5 5q-145 0 -238.5 -99t-93.5 -253zM373 168q86 -61 188 -62q152 0 244 102.5t92 252.5q0 137 -74 229z" />
<glyph unicode="&#xf9;" horiz-adv-x="1007" d="M115 371v549h141v-537q0 -125 53 -201t168 -76q160 0 256 162v652h141v-920h-141v139q-119 -158 -289 -157q-154 0 -241.5 104.5t-87.5 284.5zM272 1405h185l182 -322h-90z" />
<glyph unicode="&#xfa;" horiz-adv-x="1007" d="M115 371v549h141v-537q0 -125 53 -201t168 -76q160 0 256 162v652h141v-920h-141v139q-119 -158 -289 -157q-154 0 -241.5 104.5t-87.5 284.5zM403 1083l181 322h184l-274 -322h-91z" />
<glyph unicode="&#xfb;" horiz-adv-x="1007" d="M115 371v549h141v-537q0 -125 53 -201t168 -76q160 0 256 162v652h141v-920h-141v139q-119 -158 -289 -157q-154 0 -241.5 104.5t-87.5 284.5zM221 1083l205 322h158l204 -322h-96l-188 201l-189 -201h-94z" />
<glyph unicode="&#xfc;" horiz-adv-x="1007" d="M115 371v549h141v-537q0 -125 53 -201t168 -76q160 0 256 162v652h141v-920h-141v139q-119 -158 -289 -157q-154 0 -241.5 104.5t-87.5 284.5zM223 1243q0 39 26.5 65.5t65.5 26.5t66 -26.5t27 -65.5t-27 -65.5t-66 -26.5t-65.5 26.5t-26.5 65.5zM602 1243 q0 39 26.5 65.5t65.5 26.5t65.5 -26.5t26.5 -65.5t-26.5 -65.5t-65.5 -26.5t-65.5 26.5t-26.5 65.5z" />
<glyph unicode="&#xfd;" horiz-adv-x="884" d="M4 920h154l293 -580l276 580h154l-670 -1391h-152l318 659zM342 1083l180 322h185l-275 -322h-90z" />
<glyph unicode="&#xfe;" horiz-adv-x="1050" d="M133 -453v1850h141v-512q100 53 211 53q123 0 227.5 -46t178.5 -157.5t74 -275.5q0 -211 -124 -344t-331 -133q-106 0 -236 55v-490h-141zM274 166q100 -57 213 -57q137 0 233.5 87t96.5 261q0 152 -88 254t-266 102q-102 0 -189 -53v-594z" />
<glyph unicode="&#xff;" horiz-adv-x="884" d="M4 920h154l293 -580l276 580h154l-670 -1391h-152l318 659zM162 1243q0 39 26.5 65.5t65.5 26.5t65.5 -26.5t26.5 -65.5t-26.5 -65.5t-65.5 -26.5t-65.5 26.5t-26.5 65.5zM541 1243q0 39 26.5 65.5t65.5 26.5t65.5 -26.5t26.5 -65.5t-26.5 -65.5t-65.5 -26.5t-65.5 26.5 t-26.5 65.5z" />
<glyph unicode="&#x152;" horiz-adv-x="1857" d="M96 700.5q0 133.5 49.5 256t140.5 222t240.5 159t333.5 59.5h914v-135h-617v-490h598v-135h-598v-502h635v-135h-932q-184 0 -333.5 60.5t-240.5 161t-140.5 223t-49.5 256zM264 698.5q0 -245.5 166 -404.5t455 -159h119v1129h-119q-289 0 -455 -160t-166 -405.5z" />
<glyph unicode="&#x153;" horiz-adv-x="1759" d="M86 459q0 207 142.5 343t340.5 136q242 0 383 -193q55 96 147.5 144.5t196.5 48.5q172 0 282 -127t110 -328v-32h-664q0 -147 88 -244.5t240 -97.5q172 0 321 127v-144q-150 -111 -338 -110q-135 0 -234.5 59t-146.5 141q-164 -201 -397 -200q-193 0 -332 132t-139 345z M231 460.5q0 -147.5 93.5 -251t234.5 -103.5t233.5 102.5t92.5 252.5q0 147 -92.5 249.5t-233.5 102.5q-143 0 -235.5 -102.5t-92.5 -250zM1030 553h512q-14 133 -80.5 196.5t-161.5 63.5q-102 0 -177 -70.5t-93 -189.5z" />
<glyph unicode="&#x178;" horiz-adv-x="1226" d="M6 1397h187l417 -516l424 516h187l-533 -652v-745h-153v745zM332 1651q0 39 26.5 65.5t65.5 26.5t65.5 -26.5t26.5 -65.5t-26.5 -65.5t-65.5 -26.5t-65.5 26.5t-26.5 65.5zM711 1651q0 39 26.5 65.5t65.5 26.5t65.5 -26.5t26.5 -65.5t-26.5 -65.5t-65.5 -26.5t-65.5 26.5 t-26.5 65.5z" />
<glyph unicode="&#x2c6;" horiz-adv-x="681" d="M57 1083l205 322h158l205 -322h-97l-188 201l-188 -201h-95z" />
<glyph unicode="&#x2dc;" horiz-adv-x="681" d="M23 1135l6 48q2 15 14 53t27.5 57.5t46 38t71.5 18.5q68 0 183 -50q92 -39 135 -38q31 0 49 18t22.5 32.5t8.5 41.5h73q0 -106 -51 -162.5t-116 -56.5q-55 0 -148 36q-131 51 -168 52q-66 0 -80 -88h-73z" />
<glyph unicode="&#x2013;" horiz-adv-x="1024" d="M-12 438v92h1048v-92h-1048z" />
<glyph unicode="&#x2014;" horiz-adv-x="2048" d="M-12 438v92h2072v-92h-2072z" />
<glyph unicode="&#x2018;" d="M135 1130q0 33 7.5 68t26.5 79t63 81t106 57v-33q-84 -84 -72 -184q90 -29 90 -115q0 -53 -31.5 -85.5t-70.5 -32.5q-57 0 -88 46.5t-31 118.5z" />
<glyph unicode="&#x2019;" d="M135 1296q0 53 32 86t71 33q57 0 87.5 -47t30.5 -119q0 -33 -7 -67.5t-26.5 -78.5t-63.5 -81t-105 -57v32q84 84 71 185q-90 28 -90 114z" />
<glyph unicode="&#x201a;" d="M135 84q0 53 32 86t71 33q57 0 87.5 -47t30.5 -119q0 -33 -7 -68t-26.5 -79t-63.5 -80.5t-105 -57.5v33q84 84 71 184q-90 29 -90 115z" />
<glyph unicode="&#x201c;" horiz-adv-x="847" d="M135 1130q0 33 7.5 68t26.5 79t63 81t106 57v-33q-84 -84 -72 -184q90 -29 90 -115q0 -53 -31.5 -85.5t-70.5 -32.5q-57 0 -88 46.5t-31 118.5zM492 1130q0 33 7 68t26.5 79t63.5 81t105 57v-33q-84 -84 -71 -184q90 -29 90 -115q0 -53 -32 -85.5t-71 -32.5 q-57 0 -87.5 46.5t-30.5 118.5z" />
<glyph unicode="&#x201d;" horiz-adv-x="847" d="M135 1296q0 53 32 86t71 33q57 0 87.5 -47t30.5 -119q0 -33 -7 -67.5t-26.5 -78.5t-63.5 -81t-105 -57v32q84 84 71 185q-90 28 -90 114zM492 1296q0 53 31.5 86t70.5 33q57 0 88 -47t31 -119q0 -33 -7.5 -67.5t-27 -78.5t-63.5 -81t-105 -57v32q84 84 72 185 q-90 28 -90 114z" />
<glyph unicode="&#x201e;" horiz-adv-x="847" d="M135 84q0 53 32 86t71 33q57 0 87.5 -47t30.5 -119q0 -33 -7 -68t-26.5 -79t-63.5 -80.5t-105 -57.5v33q84 84 71 184q-90 29 -90 115zM492 84q0 53 31.5 86t70.5 33q57 0 88 -47t31 -119q0 -33 -7.5 -68t-27 -79t-63.5 -80.5t-105 -57.5v33q84 84 72 184q-90 29 -90 115 z" />
<glyph unicode="&#x2022;" horiz-adv-x="874" d="M186 700.5q0 104.5 73 177t177.5 72.5t178 -72.5t73.5 -177t-73.5 -178t-178 -73.5t-177.5 73.5t-73 178z" />
<glyph unicode="&#x2026;" horiz-adv-x="2048" d="M231 92q0 47 32 79t79 32q45 0 78 -33t33 -78q0 -47 -32 -78.5t-79 -31.5t-79 31.5t-32 78.5zM913 92q0 47 33 79t78 32t78 -32t33 -79t-33 -78.5t-78 -31.5t-78 31.5t-33 78.5zM1595 92q0 45 33 78t78 33q47 0 79 -32t32 -79t-32 -78.5t-79 -31.5t-79 31.5t-32 78.5z " />
<glyph unicode="&#x2039;" horiz-adv-x="614" d="M49 459l344 461h139l-344 -461l344 -459h-139z" />
<glyph unicode="&#x203a;" horiz-adv-x="614" d="M82 0l344 459l-344 461h139l344 -461l-344 -459h-139z" />
<glyph unicode="&#x20ac;" horiz-adv-x="1103" d="M27 500l30 141h115v53v62h-145l30 141h133q45 236 182.5 377t303.5 141q162 0 344 -117v-165q-174 137 -336 137q-131 0 -219 -100.5t-121 -272.5h653l-30 -141h-641v-62v-53h630l-30 -141h-584q31 -174 119 -273.5t219 -99.5q174 0 348 147v-165q-166 -127 -344 -127 q-186 0 -319.5 144t-176.5 374h-161z" />
<glyph unicode="&#x2122;" horiz-adv-x="1986" d="M166 1292v105h651v-105h-266v-710h-119v710h-266zM909 582v815h178l205 -652l205 652h176v-815h-108v706l-226 -706h-96l-225 710v-710h-109z" />
<glyph unicode="&#xe000;" horiz-adv-x="920" d="M0 920h920v-920h-920v920z" />
<glyph unicode="&#xf001;" horiz-adv-x="940" d="M16 795v125h148v61q0 223 92 328.5t246 105.5q156 0 230.5 -81t74.5 -197h-135q-10 82 -50 117.5t-120 35.5q-90 0 -143.5 -65.5t-53.5 -237.5v-67h197v-125h-197v-795h-141v795h-148zM666 0v920h141v-920h-141zM666 0v920h141v-920h-141zM666 0v920h141v-920h-141z" />
<glyph unicode="&#xfb01;" horiz-adv-x="940" d="M16 795v125h148v61q0 223 92 328.5t246 105.5q156 0 230.5 -81t74.5 -197h-135q-10 82 -50 117.5t-120 35.5q-90 0 -143.5 -65.5t-53.5 -237.5v-67h197v-125h-197v-795h-141v795h-148zM666 0v920h141v-920h-141zM666 0v920h141v-920h-141zM666 0v920h141v-920h-141z" />
<glyph unicode="&#xf002;" horiz-adv-x="940" d="M16 795v125h148v86q0 123 29.5 208.5t81 126.5t100.5 57.5t106 16.5q55 0 109 -26v-138q-57 23 -107 23q-94 0 -136 -61.5t-42 -202.5v-90h197v-125h-197v-795h-141v795h-148zM666 0v1397h141v-1397h-141zM666 0v1397h141v-1397h-141zM666 0v1397h141v-1397h-141z" />
<glyph unicode="&#xfb02;" horiz-adv-x="940" d="M16 795v125h148v86q0 123 29.5 208.5t81 126.5t100.5 57.5t106 16.5q55 0 109 -26v-138q-57 23 -107 23q-94 0 -136 -61.5t-42 -202.5v-90h197v-125h-197v-795h-141v795h-148zM666 0v1397h141v-1397h-141zM666 0v1397h141v-1397h-141zM666 0v1397h141v-1397h-141z" />
<glyph unicode="&#xfb03;" horiz-adv-x="1501" d="M33 795v125h143v120q0 131 53 224q39 72 118 111.5t165 39.5q82 0 139 -31v-124q-86 27 -135 26q-63 0 -111.5 -32.5t-66.5 -86.5q-20 -53 -21 -170v-77h385v61q0 223 95.5 328.5t253.5 105.5q162 0 239.5 -81t77.5 -197h-137q-10 80 -52 114.5t-128 34.5 q-96 0 -151.5 -64.5t-55.5 -234.5v-67h205v-125h-205v-795h-142v795h-385v-795h-141v795h-143zM1229 0v920h141v-920h-141z" />
<glyph unicode="&#xfb04;" horiz-adv-x="1523" d="M33 795v125h143v120q0 131 53 224q39 72 118 111.5t165 39.5q82 0 139 -31v-124q-86 27 -135 26q-63 0 -111.5 -32.5t-66.5 -86.5q-20 -53 -21 -170v-77h385v86q0 123 33 208.5t89.5 126.5t110.5 57.5t116 16.5q57 0 112 -24v-123q-53 18 -110 18q-111 0 -160 -66.5 t-49 -209.5v-90h221v-125h-221v-795h-142v795h-385v-795h-141v795h-143zM1249 0v1397h142v-1397h-142z" />
</font>
</defs>
</svg>
